<?xml version="1.0" encoding="UTF-8" standalone="no"?>
<!-- Created with Inkscape (http://www.inkscape.org/) -->

<svg
   xmlns:dc="http://purl.org/dc/elements/1.1/"
   xmlns:cc="http://creativecommons.org/ns#"
   xmlns:rdf="http://www.w3.org/1999/02/22-rdf-syntax-ns#"
   xmlns:svg="http://www.w3.org/2000/svg"
   xmlns="http://www.w3.org/2000/svg"
   xmlns:sodipodi="http://sodipodi.sourceforge.net/DTD/sodipodi-0.dtd"
   xmlns:inkscape="http://www.inkscape.org/namespaces/inkscape"
   width="91.51931mm"
   height="91.519066mm"
   viewBox="0 0 91.51931 91.519066"
   version="1.1"
   id="svg42"
   inkscape:version="0.92.4 (5da689c313, 2019-01-14)"
   sodipodi:docname="icon.svg">
  <defs
     id="defs36" />
  <sodipodi:namedview
     id="base"
     pagecolor="#ffffff"
     bordercolor="#666666"
     borderopacity="1.0"
     inkscape:pageopacity="0.0"
     inkscape:pageshadow="2"
     inkscape:zoom="0.35"
     inkscape:cx="-215.62156"
     inkscape:cy="92.949423"
     inkscape:document-units="mm"
     inkscape:current-layer="layer1"
     showgrid="false"
     fit-margin-top="0"
     fit-margin-left="0"
     fit-margin-right="0"
     fit-margin-bottom="0"
     inkscape:window-width="1366"
     inkscape:window-height="715"
     inkscape:window-x="1358"
     inkscape:window-y="-8"
     inkscape:window-maximized="1" />
  <metadata
     id="metadata39">
    <rdf:RDF>
      <cc:Work
         rdf:about="">
        <dc:format>image/svg+xml</dc:format>
        <dc:type
           rdf:resource="http://purl.org/dc/dcmitype/StillImage" />
        <dc:title></dc:title>
      </cc:Work>
    </rdf:RDF>
  </metadata>
  <g
     inkscape:label="Layer 1"
     inkscape:groupmode="layer"
     id="layer1"
     transform="translate(-49.490346,-81.907134)">
    <path
       inkscape:connector-curvature="0"
       style="fill:#55555f;fill-opacity:0.94118;stroke-width:0.26458332"
       d="M 100.46891,82.210048 C 75.363652,79.327413 52.674573,97.342627 49.79326,122.44788 c -2.882635,25.10526 15.13258,47.79433 40.237834,50.67565 25.105256,2.88131 47.794336,-15.13258 50.675646,-40.23784 2.88263,-25.10525 -15.13258,-47.794329 -40.23783,-50.675642 z m -0.469533,4.089135 c 22.847033,2.623344 39.240353,23.270897 36.618333,46.116877 -2.62334,22.84703 -23.2709,39.24035 -46.116875,36.61833 C 67.6538,166.41105 51.260481,145.76349 53.882502,122.91752 56.505845,100.07048 77.1534,83.677163 99.999377,86.299183 Z"
       id="path4" />
    <path
       inkscape:connector-curvature="0"
       style="fill:#55555f;fill-opacity:0.94118;fill-rule:evenodd;stroke-width:0.26458332"
       d="m 120.62751,100.8473 a 0.65140417,0.65140417 0 0 0 -0.47006,0.19047 0.65140417,0.65140417 0 0 0 -0.11974,0.75468 l -1.17573,1.17572 c -1.9802,0.64305 -11.65093,3.90367 -16.19832,7.69488 -4.80272,4.00394 -11.223364,11.80015 -16.200705,15.64032 l -6.495256,1.91256 c 1.476507,-2.56365 2.181595,-5.34061 2.181595,-5.34061 0,0 -3.409421,0.83153 -6.148652,2.6461 -2.412735,1.59826 -7.608887,6.69395 -8.872802,7.94438 l -0.395446,-0.39545 -1.023673,1.02367 0.712338,0.71234 c -0.163042,0.26229 -1.859386,2.99376 -2.651125,4.51802 -0.599864,1.15496 -1.154007,3.08452 -1.154007,3.08452 0,0 1.929447,-0.55415 3.084512,-1.15401 1.524291,-0.79171 4.255823,-2.48806 4.518025,-2.65112 l 0.712338,0.71233 1.023673,-1.02367 -0.397669,-0.39767 c 0.248846,-0.25291 0.405686,-0.40952 0.975784,-0.99862 l 3.306762,0.6277 c 4.486539,0.8518 1.334664,5.61367 2.23729,6.51643 0.9026,0.90259 5.664994,-2.2492 6.516952,2.23729 l 0.627116,3.30173 c -0.589333,0.57245 -0.746337,0.73012 -0.999173,0.97967 l -0.383752,-0.38375 -1.024228,1.02423 0.712338,0.71234 c -0.163275,0.26266 -1.85891,2.99376 -2.650596,4.51802 -0.599864,1.15496 -1.154007,3.08399 -1.154007,3.08399 0,0 1.928892,-0.55415 3.083983,-1.15401 1.524212,-0.79166 4.255823,-2.4873 4.518555,-2.6506 l 0.711782,0.71179 1.023673,-1.02368 -0.408808,-0.4088 c 1.248357,-1.2668 6.334125,-6.47277 7.927181,-8.89053 1.808507,-2.74532 2.663825,-6.1304 2.663825,-6.1304 0,0 -2.775214,0.6799 -5.330031,2.14537 l 1.90201,-6.459 c 3.840163,-4.97735 11.636378,-11.39772 15.640318,-16.20071 3.79121,-4.54739 7.05194,-14.21817 7.69487,-16.19832 l 1.17573,-1.17573 a 0.65140417,0.65140417 0 0 0 0.75467,-0.11974 0.65140417,0.65140417 0 0 0 0,-0.9212 0.65140417,0.65140417 0 0 0 -0.45114,-0.19047 z m -14.7828,12.30868 a 3.1620354,3.1620354 0 0 1 2.18996,0.92623 3.1620354,3.1620354 0 0 1 0,4.47172 3.1620354,3.1620354 0 0 1 -4.47226,0 3.1620354,3.1620354 0 0 1 0,-4.47172 3.1620354,3.1620354 0 0 1 2.28241,-0.92623 z m -38.740291,22.33321 2.431653,2.43166 c -0.372004,0.21203 -1.647428,0.93686 -2.561987,1.41187 -0.766683,0.39819 -2.29018,1.00864 -2.29018,1.00864 0,0 0.611002,-1.52352 1.0092,-2.29021 0.475007,-0.91455 1.199356,-2.18998 1.411314,-2.56198 z m 17.105048,17.10585 2.431097,2.43054 c -0.372321,0.21221 -1.647057,0.93694 -2.561431,1.41187 -0.766683,0.39819 -2.29018,1.00864 -2.290207,1.00864 0,0 0.610447,-1.52294 1.008645,-2.28962 0.474847,-0.91424 1.199488,-2.1888 1.411869,-2.56143 z"
       id="path6" />
  </g>
</svg>
